<svg id="Capa_1" data-name="Capa 1" xmlns="http://www.w3.org/2000/svg" viewBox="0 0 39 39.03"><title>icon-facebook</title><path d="M39.5,20A19.5,19.5,0,1,1,20.43.49,19.47,19.47,0,0,1,39.5,20ZM16.93,26.22c0,1.89,0,3.77,0,5.66,0,0.47.11,0.64,0.6,0.62,1.18,0,2.36,0,3.54,0,0.75,0,.75,0,0.75-0.75q0-5.57,0-11.14c0-.68,0-0.68.69-0.68H25a0.33,0.33,0,0,0,.42-0.32q0.13-1.64.29-3.28a0.38,0.38,0,0,0-.47-0.49c-1,0-2,0-2.93,0a0.36,0.36,0,0,1-.45-0.39c0-.77,0-1.54,0-2.31a1.07,1.07,0,0,1,1.31-1.22h2.12a0.34,0.34,0,0,0,.41-0.38q0-1.72,0-3.44a0.32,0.32,0,0,0-.35-0.39,39.77,39.77,0,0,0-4.66.11A3.94,3.94,0,0,0,17.07,11a5.54,5.54,0,0,0-.14,1.22c0,1,0,2,0,3.07a0.42,0.42,0,0,1-.52.51c-0.57,0-1.13,0-1.7,0a0.34,0.34,0,0,0-.43.4q0,1.65,0,3.3a0.35,0.35,0,0,0,.42.42c0.53,0,1.07,0,1.6,0a0.5,0.5,0,0,1,.63.61C16.92,22.44,16.93,24.33,16.93,26.22Z" transform="translate(-0.5 -0.49)"/></svg>