<?xml version="1.0" encoding="utf-8"?>
<!-- Generator: Adobe Illustrator 19.2.0, SVG Export Plug-In . SVG Version: 6.00 Build 0)  -->
<svg version="1.1" id="Capa_1" xmlns="http://www.w3.org/2000/svg" xmlns:xlink="http://www.w3.org/1999/xlink" x="0px" y="0px"
	 viewBox="0 0 40 40" style="enable-background:new 0 0 40 40;" xml:space="preserve">
<style type="text/css">
	.st0{fill:#FFFFFF;}
</style>
<g>
	<path class="st0" d="M0.5,20C0.4,9.2,9.5,0.4,20.1,0.5C30.7,0.6,39.5,9.3,39.5,20c0,10.7-8.8,19.5-19.7,19.5
		C9.4,39.4,0.4,30.8,0.5,20z M20.1,18.3c-2.4,0-4.8,0-7.1,0c-0.3,0-0.5,0-0.8,0c-1.6,0.1-2.8,1.4-2.8,3c0,0.8,0,1.6,0,2.5
		c0,1.3,0,2.5,0,3.8c0,0.5,0,1.1,0,1.6c0.2,1.6,1.5,2.8,3.1,2.9c0.5,0,1,0,1.5,0c1.8,0,3.5,0,5.3,0c2.5,0,5.1,0,7.6,0
		c0.5,0,1,0,1.5-0.1c1.3-0.2,2.3-1.3,2.4-2.6c0.1-0.7,0.1-1.4,0.1-2.1c0-2,0-4,0-6c0-1.1-0.5-2-1.5-2.5c-0.5-0.3-1.1-0.4-1.7-0.4
		C25.1,18.3,22.6,18.3,20.1,18.3z M15,10.6c-0.1-0.1-0.1-0.2-0.1-0.2c-0.3-1-0.5-1.9-0.8-2.9c0-0.2-0.1-0.2-0.3-0.2
		c-0.3,0-0.7,0-1,0c-0.3,0-0.3,0-0.2,0.2c0.4,1.3,0.7,2.6,1.1,3.8c0.4,1,0.6,2.1,0.5,3.1c0,0.7,0,1.4,0,2.1c0,0.1,0,0.2,0.2,0.2
		c0.4,0,0.8,0,1.2,0c0.1,0,0.2-0.1,0.2-0.2c0-0.3,0.1-0.7,0-1c-0.1-1.5,0.1-3.1,0.5-4.5c0.4-1.2,0.8-2.4,1.1-3.6
		c0-0.2,0-0.2-0.2-0.2c-0.4,0-0.8,0-1.2,0c-0.1,0-0.2,0.1-0.2,0.2c-0.1,0.3-0.1,0.6-0.2,0.8C15.5,9.1,15.3,9.8,15,10.6z M21.3,13.4
		C21.3,13.4,21.3,13.4,21.3,13.4c0-0.5,0-1,0-1.6c0-0.2,0-0.4-0.1-0.6c-0.4-1.8-2.3-2-3.3-1.1c-0.5,0.4-0.6,1-0.6,1.6
		c0,1.2,0,2.3,0,3.5c0.1,1,0.6,1.6,1.5,1.7c1.3,0.2,2.4-0.6,2.4-2C21.3,14.5,21.3,13.9,21.3,13.4z M26,13.3c0-1.1,0-2.2,0-3.2
		c0-0.2-0.1-0.2-0.2-0.2c-0.3,0-0.6,0-0.9,0c-0.2,0-0.3,0.1-0.3,0.3c0,1.2,0,2.5,0,3.7c0,0.3,0,0.7,0,1c0,0.4-0.2,0.7-0.6,0.7
		c-0.3,0.1-0.3,0.1-0.3-0.3c0-1.7,0-3.4,0-5.1c0-0.1,0-0.1,0-0.2c0-0.1-0.1-0.2-0.2-0.2c-0.3,0-0.7,0-1,0c-0.1,0-0.2,0.1-0.2,0.2
		c0,0.3,0,0.5,0,0.8c0,1.2,0,2.3,0,3.5c0,0.5,0,1.1,0,1.6c0,0.8,0.4,1.2,1.1,1.1c0.2,0,0.3-0.1,0.5-0.2c0.2-0.1,0.3-0.2,0.5-0.3
		c0.1-0.1,0.2-0.1,0.2,0c0.1,0.1,0.2,0.2,0.4,0.3c0.2,0.1,0.5,0,0.7,0c0.2,0,0.3-0.1,0.3-0.3C26,15.4,26,14.3,26,13.3z"/>
	<path class="st0" d="M20.7,25.2c0-1.4,0-2.8,0-4.1c0-0.3,0-0.3,0.3-0.3c0.1,0,0.3,0,0.4,0c0.2,0,0.3,0,0.3,0.2c0,0.7,0,1.5,0,2.2
		c0,0.4,0,0.4,0.3,0.2c0.2-0.1,0.4-0.2,0.6-0.3c0.7-0.2,1.3,0.2,1.3,0.9c0.1,0.7,0.1,1.4,0.1,2.1c0,0.6,0,1.2,0,1.8
		c0,0.3,0,0.6-0.1,0.9c-0.1,0.8-0.6,1-1.4,0.8c0,0,0,0-0.1,0c-0.4-0.3-0.9-0.2-1.4-0.1c-0.5,0.1-0.5,0.1-0.5-0.4
		C20.7,27.8,20.7,26.5,20.7,25.2z M21.8,26.3C21.8,26.3,21.8,26.3,21.8,26.3c0,0.6,0,1.2,0,1.8c0,0.4,0.3,0.6,0.7,0.6
		c0.3,0,0.5-0.2,0.6-0.6c0,0,0-0.1,0-0.1c0-1.1,0-2.2,0-3.3c0-0.2,0-0.3-0.1-0.5c-0.1-0.3-0.4-0.4-0.7-0.3c-0.3,0.1-0.4,0.3-0.4,0.6
		C21.8,25.2,21.8,25.8,21.8,26.3z"/>
	<path class="st0" d="M28.7,25.4c0,0.3,0,0.5,0,0.8c0,0.1-0.1,0.2-0.2,0.2c-0.6,0-1.2,0.1-1.9,0.1c-0.2,0-0.3,0.1-0.3,0.3
		c0,0.5,0,1,0,1.5c0,0.3,0.2,0.4,0.5,0.5c0.3,0,0.5-0.1,0.6-0.3c0.1-0.2,0.1-0.5,0.2-0.7c0-0.2,0.1-0.3,0.3-0.3c0.1,0,0.3,0,0.4,0
		c0.1,0,0.2,0,0.2,0.2c0.1,0.4,0.1,0.8-0.1,1.2c-0.2,0.5-0.5,0.8-1.1,0.9c-0.4,0.1-0.7,0.1-1.1,0c-0.7-0.1-1.2-0.7-1.2-1.4
		c-0.1-1.3-0.1-2.6,0-3.9c0.1-0.8,0.8-1.5,1.7-1.5c1.1-0.1,1.8,0.6,1.8,1.8C28.7,24.9,28.7,25.2,28.7,25.4z M27,25.5
		c0.1,0,0.3,0,0.4,0c0.1,0,0.2,0,0.2-0.2c0-0.3,0-0.6-0.1-0.9c-0.1-0.4-0.5-0.5-0.8-0.3c-0.3,0.2-0.3,0.5-0.3,0.8
		C26.4,25.5,26.4,25.5,27,25.5z"/>
	<path class="st0" d="M19.3,26.3c0,1,0,1.9,0,2.9c0,0.4,0,0.4-0.4,0.4c0,0-0.1,0-0.1,0c-0.3,0.1-0.6,0-0.7-0.4c0-0.1-0.1-0.1-0.2,0
		c-0.2,0.2-0.4,0.3-0.7,0.4c-0.2,0.1-0.3,0.1-0.5,0.1c-0.3,0-0.5-0.1-0.7-0.4c-0.1-0.2-0.2-0.5-0.2-0.7c0-1.7,0-3.5,0-5.2
		c0-0.2,0.1-0.2,0.2-0.2c0.2,0,0.5,0,0.7,0c0.2,0,0.3,0.1,0.3,0.3c0,1.6,0,3.2,0,4.8c0,0.4,0,0.4,0.4,0.3c0.5,0,0.8-0.2,0.8-0.8
		c0-1.4,0-2.9,0-4.3c0-0.3,0-0.3,0.3-0.3c0.1,0,0.3,0,0.4,0c0.4,0,0.4-0.1,0.4,0.4C19.3,24.5,19.3,25.4,19.3,26.3z"/>
	<path class="st0" d="M13,25.8c0-1.2,0-2.3,0-3.5c0-0.2,0-0.3-0.3-0.3c-0.3,0-0.6-0.1-0.9-0.1c-0.2,0-0.3-0.1-0.3-0.3
		c0-0.2,0-0.4,0-0.6c0-0.1,0-0.2,0.2-0.2c1.3,0,2.5,0,3.8,0c0.1,0,0.2,0,0.2,0.2c0,0.2,0,0.5,0,0.7c0,0.2-0.1,0.2-0.2,0.2
		c-0.3,0-0.6,0.1-0.9,0.1c-0.2,0-0.2,0.1-0.2,0.3c0,1.4,0,2.9,0,4.3c0,0.9,0,1.8,0,2.7c0,0.2-0.1,0.3-0.3,0.3c-0.3,0-0.6,0-0.8,0
		c-0.3,0-0.3,0-0.3-0.3C13,28.1,13,27,13,25.8z"/>
	<path class="st0" d="M19.8,13.4c0,0.6,0,1.1,0,1.7c0,0.3-0.2,0.5-0.4,0.5c-0.2,0-0.5-0.3-0.5-0.5c-0.1-1-0.1-2,0-3
		c0-0.2,0-0.4,0.2-0.6c0.2-0.2,0.4-0.3,0.5-0.2c0.2,0.1,0.3,0.3,0.3,0.5C19.8,12.2,19.8,12.8,19.8,13.4z"/>
</g>
</svg>
