<?xml version="1.0" encoding="utf-8"?>
<!-- Generator: Adobe Illustrator 19.2.0, SVG Export Plug-In . SVG Version: 6.00 Build 0)  -->
<svg version="1.1" id="Capa_1" xmlns="http://www.w3.org/2000/svg" xmlns:xlink="http://www.w3.org/1999/xlink" x="0px" y="0px"
	 viewBox="0 0 40 40" style="enable-background:new 0 0 40 40;" xml:space="preserve">
<style type="text/css">
	.st0{fill:#FFFFFF;}
</style>
<g>
	<path class="st0" d="M39.5,20c0.1,10.4-8.4,19.5-19.4,19.5C9.5,39.5,0.5,31.2,0.5,20C0.5,8.8,9.6,0.3,20.4,0.5
		C31.2,0.7,39.6,9.6,39.5,20z M16.9,26.2c0,1.9,0,3.8,0,5.7c0,0.5,0.1,0.6,0.6,0.6c1.2,0,2.4,0,3.5,0c0.7,0,0.7,0,0.7-0.8
		c0-3.7,0-7.4,0-11.1c0-0.7,0-0.7,0.7-0.7c0.8,0,1.6,0,2.5,0c0.2,0,0.4,0,0.4-0.3c0.1-1.1,0.2-2.2,0.3-3.3c0-0.4-0.1-0.5-0.5-0.5
		c-1,0-2,0-2.9,0c-0.3,0-0.5-0.1-0.5-0.4c0-0.8,0-1.5,0-2.3c0.1-0.9,0.4-1.2,1.3-1.2c0.7,0,1.4,0,2.1,0c0.3,0,0.4-0.1,0.4-0.4
		c0-1.1,0-2.3,0-3.4c0-0.2-0.1-0.4-0.4-0.4c-1.6,0-3.1-0.1-4.7,0.1c-2,0.3-3.2,1.4-3.6,3.2c-0.1,0.4-0.1,0.8-0.1,1.2c0,1,0,2,0,3.1
		c0,0.4-0.1,0.5-0.5,0.5c-0.6,0-1.1,0-1.7,0c-0.3,0-0.4,0.1-0.4,0.4c0,1.1,0,2.2,0,3.3c0,0.3,0.1,0.4,0.4,0.4c0.5,0,1.1,0,1.6,0
		c0.5,0,0.6,0.1,0.6,0.6C16.9,22.4,16.9,24.3,16.9,26.2z"/>
</g>
</svg>
