<?xml version="1.0" encoding="utf-8"?>
<!-- Generator: Adobe Illustrator 19.2.0, SVG Export Plug-In . SVG Version: 6.00 Build 0)  -->
<svg version="1.1" id="Capa_1" xmlns="http://www.w3.org/2000/svg" xmlns:xlink="http://www.w3.org/1999/xlink" x="0px" y="0px"
	 viewBox="0 0 2315.5 800" style="enable-background:new 0 0 2315.5 800;" xml:space="preserve">
<style type="text/css">
	.st0{fill:#FFFFFF;}
</style>
<g>
	<path class="st0" d="M906.1,50.1c-2.3-16-13.7-18.3-27.5-4.6C778,153.1,556,447.1,440.5,635.9c43.5-165.9,91.5-305.5,128.1-413
		c28.6-87,22.9-115.6,0-148.7C559.4,60.4,548,63.8,540,73c-117.8,143-294,383.3-400.5,557.2C188.7,467.7,244.8,319,282.6,216
		c33.2-88.1,30.9-129.3,11.4-162.5c-8-13.7-19.5-12.6-28.6,4.6C209.3,165.7,116.7,428.8,75.5,602.7c-18.3,79-9.2,122.4,30.9,157.9
		c14.9,12.6,26.3,6.9,34.3-5.7c97.3-154.5,230-341,333-476c-37.8,107.5-76.7,233.4-95,318.1c-17.2,81.2-3.4,122.4,35.5,157.9
		c14.9,13.7,25.2,8,34.3-5.7C586.9,536.4,756.2,325.8,839.8,216C898.1,139.3,913,90.1,906.1,50.1z"/>
	<path class="st0" d="M913,277.8c17.2,29.7,49.2,33.2,64.1,17.2c14.9-16,22.9-46.9,8-76.7c-14.9-30.9-48.1-44.6-66.4-25.2
		C900.4,212.6,894.7,246.9,913,277.8z"/>
	<path class="st0" d="M2242.4,170.2c13.7-53.8,6.9-96.1-26.3-125.9c-16-14.9-32-12.6-49.2,5.7c-116.7,121.3-247.1,328.4-289.5,527.5
		c-0.4,1.7-0.7,3.4-1.1,5.1c-43.6,75.5-98.6,143.8-144.2,145.9c-41.2,2.3-45.8-45.8-16-111c26.3-58.4,83.5-144.2,108.7-195.7
		c27.5-57.2,18.3-107.5,1.1-128.1c-9.2-11.4-17.2-9.2-28.6,6.9c-36.6,49.2-69.8,128.1-141.9,244.8
		c-61.8,99.5-124.7,179.6-169.3,176.2c-26.3-2.3-29.8-43.5-5.7-99.5c24-54.9,46.9-100.7,89.2-168.2c41.2-65.2,46.9-116.7,21.7-154.5
		c-9.2-10.3-20.6-11.4-29.7,1.1c-74.4,104.1-132.7,216.2-157.9,291.8c-2.9,8.7-5.4,17.5-7.5,26.2c-37.9,60.5-85.2,110.4-122.9,112.2
		c-38.9,2.3-37.8-44.6-6.9-111c57.2-121.3,167-310.1,222-408.5c48.1-85.8,51.5-135,35.5-172.8c-5.7-14.9-16-16-27.5,0
		c-41.2,58.4-128.1,214-189.9,331.8c1.1-42.3-21.7-77.8-68.7-77.8c-57.2,0-148.7,51.5-239.1,184.2c-28.9,42.3-46.9,85.3-54.9,124.6
		c-35.7,66.8-89.1,124-133.8,126c-36.6,2.3-38.9-42.3-11.4-108.7c24-57.2,72.1-135,96.1-185.4c27.5-57.2,18.3-106.4,1.1-124.7
		c-9.2-10.3-17.2-6.9-27.5,6.9C826,375,750.5,510.1,721.9,593.6c-32,93.8-10.3,167,76.7,167c50.5,0,106-29.9,144.1-77.3
		c10.1,45.9,40.8,76.2,89.3,76.2c53.8,0,105.3-42.3,141.9-88.1c0,53.8,30.9,88.1,92.7,91.5c43.4,2.4,90.7-25.8,125.9-64.1
		c7,32.8,27.9,56.6,69.7,59.6c64.1,4.6,124.7-53.8,164.8-107.6c-9.2,66.4,20.6,113.3,95,113.3c55.4,0,113.1-39.3,150.3-88.8
		c9.7,55.5,46.5,81.5,100.2,83c91.5,2.3,175.1-92.7,191.1-127c12.6-27.5,17.2-52.6,11.4-70.9c-4.6-16-17.2-14.9-25.2,0
		c-44.6,88.1-124.7,170.5-179.6,165.9c-51.5-4.6-38.9-99.5,6.9-211.7C2078.8,448.3,2207,311,2242.4,170.2z M2025,410.5
		c79-146.5,163.6-273.5,178.5-264.3c14.9,9.2-49.2,192.2-206,319.2C2005.6,447.1,2014.7,428.8,2025,410.5z M1044.5,721.7
		c-44.6-1.1-32-100.7,29.8-199.1c62.9-100.7,146.5-172.8,181.9-171.6c33.2,1.1,16,73.2-50.3,200.2
		C1152.1,655.4,1090.3,722.9,1044.5,721.7z"/>
</g>
</svg>
